<svg width="180" height="50" viewBox="0 0 222 64" fill="none" xmlns="http://www.w3.org/2000/svg">
<path d="M28.8788 25.8315H9.62627L0 42.5053L9.62627 59.1791H28.8788L38.5067 42.5053L28.8788 25.8315Z" fill="white"/>
<path d="M61.4081 4.30518H42.1556L32.5293 20.979L42.1556 37.6544H61.4081L71.036 20.979L61.4081 4.30518Z" fill="white"/>
<path d="M58.2392 40.8989H45.4436L39.0449 51.9793L45.4436 63.0613H58.2392L64.6362 51.9793L58.2392 40.8989Z" fill="white"/>
<path d="M25.8906 0H13.0949L6.69629 11.0804L13.0949 22.1624H25.8906L32.2876 11.0804L25.8906 0Z" fill="white"/>
<path d="M80.2168 27.4156L84.1448 4.55615H89.6168L94.2486 18.6212L98.8454 4.55782H104.282L108.244 27.4173H102.269L100.893 17.7162C100.827 17.2686 100.764 16.8261 100.709 16.3902C100.652 15.9543 100.591 15.5117 100.524 15.0642C100.434 15.4901 100.328 15.9144 100.205 16.3403C100.082 16.7662 99.9535 17.1788 99.8187 17.5831L96.6294 27.2509H91.8295L88.6402 17.5831C88.5054 17.1804 88.3773 16.7778 88.2542 16.3752C88.1311 15.9726 88.013 15.5583 87.9015 15.1324C87.8566 15.5799 87.8067 16.0158 87.7501 16.4418C87.6935 16.8677 87.632 17.2919 87.5654 17.7178L86.1895 27.419H80.2168V27.4156Z" fill="white"/>
<path d="M112.442 33.7952L115.361 26.8143L108.682 10.9707H114.758L118.383 19.5638L121.975 10.9707H128.051L118.518 33.7969H112.442V33.7952Z" fill="white"/>
<path d="M87.1331 63.4796V44.816H80.252V40.6201H98.646V44.816H91.5636V63.4796H87.1331Z" fill="white"/>
<path d="M115.597 59.2837V63.4796H101.264V40.6201H115.597V44.7827H105.661V49.9186H113.683V54.1145H105.661V59.2837H115.597Z" fill="white"/>
<path d="M117.609 63.4796L125.733 40.6201H130.869L138.724 63.4796H134.293L132.749 58.8811H123.652L122.042 63.4796H117.609ZM125.094 54.785H131.372L128.284 45.5547L125.094 54.785Z" fill="white"/>
<path d="M150.504 63.8795C148.155 63.8795 146.112 63.3704 144.378 62.3522C142.645 61.334 141.301 59.9348 140.351 58.1563C139.399 56.3778 138.925 54.3464 138.925 52.0638C138.925 49.7812 139.422 47.7497 140.419 45.9712C141.414 44.1927 142.785 42.7935 144.532 41.7753C146.277 40.7571 148.268 40.248 150.506 40.248C153.17 40.248 155.351 40.8187 157.051 41.96C158.751 43.1013 160.082 44.6902 161.046 46.7266L156.951 48.2039C156.123 46.8613 155.183 45.9097 154.131 45.3507C153.08 44.7917 151.87 44.5122 150.506 44.5122C149.14 44.5122 147.927 44.8316 146.864 45.4688C145.801 46.106 144.962 46.9911 144.347 48.1208C143.731 49.2504 143.423 50.5664 143.423 52.0654C143.423 53.5644 143.731 54.8804 144.347 56.0101C144.962 57.1398 145.801 58.0249 146.864 58.6621C147.927 59.2993 149.14 59.6187 150.506 59.6187C151.87 59.6187 153.08 59.3392 154.131 58.7802C155.183 58.2212 156.123 57.2695 156.951 55.9269L161.046 57.4043C160.084 59.4407 158.751 61.0295 157.051 62.1709C155.349 63.3088 153.168 63.8795 150.504 63.8795Z" fill="white"/>
<path d="M163.9 63.4796V40.6201H168.298V50.1865H177.897V40.6201H182.294V63.4796H177.897V54.3824H168.298V63.4796H163.9Z" fill="white"/>
<path d="M201.224 59.2837V63.4796H186.891V40.6201H201.224V44.7827H191.288V49.9186H199.31V54.1145H191.288V59.2837H201.224Z" fill="white"/>
<path d="M205.051 63.4796V40.6201H213.476C215.086 40.6201 216.519 40.9445 217.772 41.5934C219.024 42.2422 220.004 43.154 220.708 44.3285C221.412 45.5031 221.766 46.8624 221.766 48.4063C221.766 49.9952 221.392 51.3827 220.641 52.5689C219.891 53.7552 218.88 54.6619 217.604 55.2875L222.001 63.4779H217.201L213.273 56.1609H209.446V63.4779H205.051V63.4796ZM213.038 44.816H209.446V51.965H213.038C214.336 51.965 215.366 51.6572 216.126 51.0416C216.886 50.4261 217.267 49.5476 217.267 48.4063C217.267 47.2201 216.886 46.325 216.126 45.7211C215.366 45.1188 214.336 44.816 213.038 44.816Z" fill="white"/>
<path d="M80.2168 27.4156L84.1448 4.55615H89.6168L94.2486 18.6212L98.8454 4.55782H104.282L108.244 27.4173H102.269L100.893 17.7162C100.827 17.2686 100.764 16.8261 100.709 16.3902C100.652 15.9543 100.591 15.5117 100.524 15.0642C100.434 15.4901 100.328 15.9144 100.205 16.3403C100.082 16.7662 99.9535 17.1788 99.8187 17.5831L96.6294 27.2509H91.8295L88.6402 17.5831C88.5054 17.1804 88.3773 16.7778 88.2542 16.3752C88.1311 15.9726 88.013 15.5583 87.9015 15.1324C87.8566 15.5799 87.8067 16.0158 87.7501 16.4418C87.6935 16.8677 87.632 17.2919 87.5654 17.7178L86.1895 27.419H80.2168V27.4156Z" fill="white"/>
<path d="M112.442 33.7952L115.361 26.8143L108.682 10.9707H114.758L118.383 19.5638L121.975 10.9707H128.051L118.518 33.7969H112.442V33.7952Z" fill="white"/>
</svg>
